<?xml version="1.0" encoding="UTF-8"?>
<svg version="1.1" xmlns="http://www.w3.org/2000/svg" width="512" height="512">
<path d="M0 0 C1.01790619 0.00215515 2.03581238 0.0043103 3.08456421 0.00653076 C17.69363523 0.05620146 32.02575853 0.30709809 46.375 3.3125 C47.34985352 3.51117676 48.32470703 3.70985352 49.32910156 3.91455078 C97.7109774 14.03517194 141.69928269 35.9516877 177.375 70.3125 C178.3640332 71.26068604 178.3640332 71.26068604 179.37304688 72.22802734 C188.86130305 81.37247479 197.6012044 90.66984009 205.375 101.3125 C206.23306152 102.46355017 207.09113451 103.61459177 207.94921875 104.765625 C213.98736829 112.95680614 219.34595521 121.47054105 224.375 130.3125 C224.73948242 130.94430176 225.10396484 131.57610352 225.47949219 132.22705078 C247.08534998 169.97532572 256.85198095 212.74189997 256.6875 255.9375 C256.68534485 256.95540619 256.6831897 257.97331238 256.68096924 259.02206421 C256.63129854 273.63113523 256.38040191 287.96325853 253.375 302.3125 C253.07698486 303.77478027 253.07698486 303.77478027 252.77294922 305.26660156 C242.65232806 353.6484774 220.7358123 397.63678269 186.375 433.3125 C185.74287598 433.97185547 185.11075195 434.63121094 184.45947266 435.31054688 C175.31502521 444.79880305 166.01765991 453.5387044 155.375 461.3125 C154.22394983 462.17056152 153.07290823 463.02863451 151.921875 463.88671875 C143.73224019 469.92427396 135.22961724 475.30707302 126.375 480.3125 C125.66778809 480.7146875 124.96057617 481.116875 124.23193359 481.53125 C101.09654164 494.5566741 75.92537591 503.30551461 49.9375 508.625 C49.21860596 508.77235596 48.49971191 508.91971191 47.7590332 509.0715332 C33.08339502 511.86090125 18.55831162 512.66142619 3.64770508 512.62817383 C0.70811513 512.6250221 -2.2304558 512.64854926 -5.16992188 512.67382812 C-18.54306192 512.71848737 -31.43916711 511.51301542 -44.625 509.3125 C-46.33055054 509.03031616 -46.33055054 509.03031616 -48.07055664 508.74243164 C-91.33802759 500.97044532 -132.38793216 480.98345309 -165.625 452.3125 C-166.37007813 451.67828125 -167.11515625 451.0440625 -167.8828125 450.390625 C-181.38779833 438.57948485 -194.05918743 425.82889772 -204.625 411.3125 C-205.48149066 410.16255169 -206.33826433 409.01281411 -207.1953125 407.86328125 C-213.23534209 399.67315742 -218.61867614 391.16870382 -223.625 382.3125 C-224.0271875 381.60528809 -224.429375 380.89807617 -224.84375 380.16943359 C-237.8691741 357.03404164 -246.61801461 331.86287591 -251.9375 305.875 C-252.08485596 305.15610596 -252.23221191 304.43721191 -252.3840332 303.6965332 C-255.35789088 288.05024391 -255.99800362 272.57681954 -255.9375 256.6875 C-255.93534485 255.66959381 -255.9331897 254.65168762 -255.93096924 253.60293579 C-255.88129854 238.99386477 -255.63040191 224.66174147 -252.625 210.3125 C-252.42632324 209.33764648 -252.22764648 208.36279297 -252.02294922 207.35839844 C-241.90232806 158.9765226 -219.9858123 114.98821731 -185.625 79.3125 C-184.99287598 78.65314453 -184.36075195 77.99378906 -183.70947266 77.31445312 C-174.56502521 67.82619695 -165.26765991 59.0862956 -154.625 51.3125 C-153.47394983 50.45443848 -152.32290823 49.59636549 -151.171875 48.73828125 C-142.98224019 42.70072604 -134.47961724 37.31792698 -125.625 32.3125 C-124.91778809 31.9103125 -124.21057617 31.508125 -123.48193359 31.09375 C-100.34654164 18.0683259 -75.17537591 9.31948539 -49.1875 4 C-48.46860596 3.85264404 -47.74971191 3.70528809 -47.0090332 3.5534668 C-31.36274391 0.57960912 -15.88931954 -0.06050362 0 0 Z " fill="#EA271F" transform="translate(255.625,-0.3125)"/>
<path d="M0 0 C4.00521387 2.88747977 7.46370991 6.48991981 9.6875 10.9375 C9.7783238 12.72481924 9.80503799 14.51555489 9.80102539 16.30517578 C9.80090454 17.44188721 9.80078369 18.57859863 9.80065918 19.74975586 C9.79554321 20.94866455 9.79042725 22.14757324 9.78515625 23.3828125 C9.78414917 24.48165771 9.78314209 25.58050293 9.78210449 26.71264648 C9.77686056 30.82927489 9.76289937 34.94588846 9.75 39.0625 C9.729375 48.26125 9.70875 57.46 9.6875 66.9375 C43.3475 66.9375 77.0075 66.9375 111.6875 66.9375 C111.52937471 48.77783645 111.52937471 48.77783645 111.32714844 30.61865234 C111.31546264 28.33692167 111.30527056 26.05518265 111.296875 23.7734375 C111.27641113 22.59499268 111.25594727 21.41654785 111.23486328 20.20239258 C111.23160654 12.5474197 111.87922453 8.7731076 117.3203125 3.29296875 C123.2809695 -1.37257168 127.20385568 -1.62510021 134.6875 -1.0625 C140.21300417 0.70983153 143.32158238 4.38748107 146.6875 8.9375 C147.98413922 11.53077843 147.80753569 13.40158068 147.80102539 16.30517578 C147.80094986 17.42618683 147.80087433 18.54719788 147.80079651 19.70217896 C147.79563522 20.91678802 147.79047394 22.13139709 147.78515625 23.3828125 C147.78303383 25.24303543 147.78303383 25.24303543 147.78086853 27.14083862 C147.77621096 30.43868133 147.76722439 33.73647546 147.75616455 37.03430176 C147.74593731 40.39916387 147.74136809 43.76403308 147.73632812 47.12890625 C147.72528269 53.73178993 147.70853247 60.33464099 147.6875 66.9375 C148.3757486 66.92861755 149.06399719 66.91973511 149.77310181 66.9105835 C156.94321377 66.82201705 164.11317006 66.76172661 171.28369141 66.71777344 C173.95913375 66.69993175 176.63372016 66.67038951 179.30908203 66.63574219 C183.15668571 66.58716494 187.00370787 66.56451635 190.8515625 66.546875 C192.04552643 66.52622986 193.23949036 66.50558472 194.46963501 66.48431396 C202.10510026 66.48225557 205.8666357 67.14386276 211.33203125 72.5703125 C215.99757168 78.5309695 216.25010021 82.45385568 215.6875 89.9375 C213.96157479 95.31832566 210.34454887 98.86284623 205.6875 101.9375 C202.51042611 102.95371691 199.60002074 103.05879094 196.27636719 103.05102539 C194.6325708 103.05084412 194.6325708 103.05084412 192.95556641 103.05065918 C191.81007324 103.04554321 190.66458008 103.04042725 189.484375 103.03515625 C188.42686035 103.03414917 187.3693457 103.03314209 186.27978516 103.03210449 C182.33234573 103.02687553 178.38492177 103.01291426 174.4375 103 C165.61 102.979375 156.7825 102.95875 147.6875 102.9375 C147.6875 136.5975 147.6875 170.2575 147.6875 204.9375 C165.14381762 204.81896865 165.14381762 204.81896865 182.59985352 204.66723633 C184.79703331 204.65847004 186.99421799 204.65082644 189.19140625 204.64453125 C190.88662415 204.6215094 190.88662415 204.6215094 192.61608887 204.59802246 C199.61130355 204.59570744 205.2139879 204.83071328 210.6484375 209.69140625 C211.11507813 210.28824219 211.58171875 210.88507813 212.0625 211.5 C212.54460937 212.09941406 213.02671875 212.69882812 213.5234375 213.31640625 C216.70478793 217.74681037 216.08286443 222.67840709 215.6875 227.9375 C213.96157479 233.31832566 210.34454887 236.86284623 205.6875 239.9375 C202.51042611 240.95371691 199.60002074 241.05879094 196.27636719 241.05102539 C195.19554871 241.05094986 194.11473022 241.05087433 193.00115967 241.05079651 C191.84062073 241.04563522 190.68008179 241.04047394 189.484375 241.03515625 C187.69498505 241.03303383 187.69498505 241.03303383 185.8694458 241.03086853 C182.05877171 241.02527038 178.24815634 241.01271819 174.4375 241 C171.85416752 240.99498476 169.27083411 240.9904219 166.6875 240.98632812 C160.35414663 240.97530155 154.02082751 240.95856524 147.6875 240.9375 C147.69749275 241.92895775 147.69749275 241.92895775 147.70768738 242.94044495 C147.77418366 249.83500289 147.81936009 256.72946935 147.85229492 263.62426758 C147.86735844 266.1955943 147.8878132 268.76689543 147.91381836 271.33813477 C147.95030761 275.03928962 147.96725121 278.740104 147.98046875 282.44140625 C147.99595261 283.58646133 148.01143646 284.73151642 148.02738953 285.91127014 C148.02885458 292.89792588 147.75854878 298.43371253 142.96875 303.8984375 C142.3809375 304.36507813 141.793125 304.83171875 141.1875 305.3125 C140.5996875 305.79460937 140.011875 306.27671875 139.40625 306.7734375 C134.76589153 309.91622574 129.05158397 309.48391314 123.6875 308.9375 C118.80250477 306.58546526 115.83246375 303.25059314 112.6875 298.9375 C111.61377331 295.78379377 111.56622862 292.84165244 111.57397461 289.52636719 C111.57409546 288.43050293 111.57421631 287.33463867 111.57434082 286.20556641 C111.57945679 285.06007324 111.58457275 283.91458008 111.58984375 282.734375 C111.59085083 281.67686035 111.59185791 280.6193457 111.59289551 279.52978516 C111.59812447 275.58234573 111.61208574 271.63492177 111.625 267.6875 C111.645625 258.86 111.66625 250.0325 111.6875 240.9375 C78.0275 240.9375 44.3675 240.9375 9.6875 240.9375 C9.80603135 258.39381762 9.80603135 258.39381762 9.95776367 275.84985352 C9.96652996 278.04703331 9.97417356 280.24421799 9.98046875 282.44140625 C10.0034906 284.13662415 10.0034906 284.13662415 10.02697754 285.86608887 C10.02929494 292.86849082 9.77019462 298.42042568 4.96875 303.8984375 C4.3809375 304.36507813 3.793125 304.83171875 3.1875 305.3125 C2.30578125 306.03566406 2.30578125 306.03566406 1.40625 306.7734375 C-3.23410847 309.91622574 -8.94841603 309.48391314 -14.3125 308.9375 C-19.54469836 306.41829338 -23.69787029 302.16675942 -26.3125 296.9375 C-26.4033238 295.15018076 -26.43003799 293.35944511 -26.42602539 291.56982422 C-26.42591209 289.88830765 -26.42591209 289.88830765 -26.42579651 288.17282104 C-26.42063522 286.95821198 -26.41547394 285.74360291 -26.41015625 284.4921875 C-26.4087413 283.25203888 -26.40732635 282.01189026 -26.40586853 280.73416138 C-26.40121096 277.43631867 -26.39222439 274.13852454 -26.38116455 270.84069824 C-26.37093731 267.47583613 -26.36636809 264.11096692 -26.36132812 260.74609375 C-26.35028269 254.14321007 -26.33353247 247.54035901 -26.3125 240.9375 C-27.0007486 240.94638245 -27.68899719 240.95526489 -28.39810181 240.9644165 C-35.56821377 241.05298295 -42.73817006 241.11327339 -49.90869141 241.15722656 C-52.58413375 241.17506825 -55.25872016 241.20461049 -57.93408203 241.23925781 C-61.78168571 241.28783506 -65.62870787 241.31048365 -69.4765625 241.328125 C-70.67052643 241.34877014 -71.86449036 241.36941528 -73.09463501 241.39068604 C-80.74513463 241.39274848 -84.43834415 240.70122861 -89.95703125 235.33984375 C-94.67144238 229.42712076 -95.06419145 224.3167809 -94.3125 216.9375 C-91.79329338 211.70530164 -87.54175942 207.55212971 -82.3125 204.9375 C-80.52518076 204.8466762 -78.73444511 204.81996201 -76.94482422 204.82397461 C-75.23975708 204.82415588 -75.23975708 204.82415588 -73.50024414 204.82434082 C-72.30133545 204.82945679 -71.10242676 204.83457275 -69.8671875 204.83984375 C-68.76834229 204.84085083 -67.66949707 204.84185791 -66.53735352 204.84289551 C-62.42072511 204.84813944 -58.30411154 204.86210063 -54.1875 204.875 C-40.389375 204.9059375 -40.389375 204.9059375 -26.3125 204.9375 C-26.3125 171.2775 -26.3125 137.6175 -26.3125 102.9375 C-44.47216355 103.09562529 -44.47216355 103.09562529 -62.63134766 103.29785156 C-64.91307833 103.30953736 -67.19481735 103.31972944 -69.4765625 103.328125 C-71.24422974 103.3588208 -71.24422974 103.3588208 -73.04760742 103.39013672 C-80.71780008 103.39339994 -84.42340636 102.71574061 -89.95703125 97.33984375 C-94.67144238 91.42712076 -95.06419145 86.3167809 -94.3125 78.9375 C-91.79329338 73.70530164 -87.54175942 69.55212971 -82.3125 66.9375 C-80.52518076 66.8466762 -78.73444511 66.81996201 -76.94482422 66.82397461 C-75.82381317 66.82405014 -74.70280212 66.82412567 -73.54782104 66.82420349 C-72.33321198 66.82936478 -71.11860291 66.83452606 -69.8671875 66.83984375 C-68.62703888 66.8412587 -67.38689026 66.84267365 -66.10916138 66.84413147 C-62.81131867 66.84878904 -59.51352454 66.85777561 -56.21569824 66.86883545 C-52.85083613 66.87906269 -49.48596692 66.88363191 -46.12109375 66.88867188 C-39.51821007 66.89971731 -32.91535901 66.91646753 -26.3125 66.9375 C-26.32138245 66.25147202 -26.33026489 65.56544403 -26.3394165 64.85862732 C-26.42805821 57.70458323 -26.48830456 50.55069571 -26.53222656 43.39624023 C-26.5500524 40.7276319 -26.57958675 38.05988477 -26.61425781 35.39135742 C-26.66289508 31.55115924 -26.68549739 27.71154425 -26.703125 23.87109375 C-26.72377014 22.68229111 -26.74441528 21.49348846 -26.76568604 20.2686615 C-26.76774373 12.63630677 -26.08651307 7.76194531 -20.55859375 2.16015625 C-13.97257825 -2.06456644 -7.41019288 -2.37685432 0 0 Z " fill="#FEFEFE" transform="translate(195.3125,102.0625)"/>
<path d="M0 0 C33.66 0 67.32 0 102 0 C102 33.66 102 67.32 102 102 C68.34 102 34.68 102 0 102 C0 68.34 0 34.68 0 0 Z " fill="#EA2820" transform="translate(205,205)"/>
</svg>